<?xml version="1.0" encoding="UTF-8"?>
<svg id="SVGDoc" width="10" height="19" xmlns="http://www.w3.org/2000/svg" version="1.1" xmlns:xlink="http://www.w3.org/1999/xlink" xmlns:avocode="https://avocode.com/" viewBox="0 0 10 19"><defs></defs><desc>Generated with Avocode.</desc><g><g><title>LJd0ep.tif_2_</title><g><title>Group 1</title><g><title>Path 1</title><path d="M2.58765,9.20928c-0.58471,0 -1.09633,0 -1.60795,0c-0.21927,0 -0.36544,-0.07309 -0.36544,-0.29236c0,-0.87707 0,-1.75415 0,-2.63122c0,-0.07309 0,-0.14618 0,-0.29236c0.51162,0 1.02324,0 1.53486,0c0.43853,0 0.43853,0 0.43853,-0.43854c0,-0.95016 -0.07309,-1.90033 0.07309,-2.7774c0.21927,-1.53488 1.09633,-2.41195 2.63119,-2.63122c1.02324,-0.14618 2.04648,-0.07309 2.99663,-0.14618c0.29235,0 0.58471,0 0.87706,0c0.14618,0 0.21926,0.07309 0.21926,0.21927c0,0.95016 0,1.90033 0,2.85049c0,0.21927 -0.14618,0.29236 -0.29235,0.29236c-0.58471,0 -1.24251,0 -1.82721,0c-0.58471,0 -0.73089,0.21927 -0.73089,0.73089c0,0.51163 0,1.09634 0,1.60797c0,0.21927 0.07309,0.29236 0.29235,0.29236c0.73089,0 1.53486,0 2.26575,0c0.29235,0 0.36544,0.07309 0.36544,0.36545c-0.07309,0.87707 -0.14618,1.75415 -0.21927,2.55813c0,0.21927 -0.14618,0.29236 -0.36544,0.29236c-0.6578,0 -1.31559,0 -1.97339,0c-0.29235,0 -0.36544,0.07309 -0.36544,0.36545c0,2.7774 0,5.5548 0,8.3322c0,0.51163 0,0.51163 -0.51162,0.51163c-1.02324,0 -2.04648,0 -3.06972,0c-0.29235,0 -0.43853,-0.07309 -0.43853,-0.43854c0,-2.7774 0,-5.5548 0,-8.3322c0.07309,-0.14618 0.07309,-0.29236 0.07309,-0.43854z" fill="#c3c3c3" fill-opacity="1"></path></g></g></g></g></svg>