<svg xmlns="http://www.w3.org/2000/svg" width="28" height="26" viewBox="0 0 28 26"><defs><clipPath id="52rwa"><path d="M0 25.896V.104h27.401v25.792z"/></clipPath></defs><g><g><g><g/><g clip-path="url(#52rwa)"><path fill="#181b43" d="M27.397 13.194c.009-.064.002-.13.002-.194 0-.065.007-.13-.002-.193-.009-.061-.033-.12-.05-.18-.018-.066-.031-.133-.06-.196-.003-.007-.003-.015-.006-.022-.027-.059-.07-.105-.104-.158-.03-.046-.05-.097-.087-.141L17.526.607a1.392 1.392 0 0 0-2.141 1.78l7.668 9.22H1.392a1.392 1.392 0 0 0 0 2.785h21.66l-7.667 9.222a1.393 1.393 0 0 0 2.14 1.78L27.09 13.89c.038-.045.059-.097.09-.145.033-.052.075-.097.1-.154.004-.007.004-.014.007-.02.029-.065.043-.133.061-.2.017-.06.04-.117.049-.177"/></g></g></g></g></svg>