<svg xmlns="http://www.w3.org/2000/svg" width="25" height="16" viewBox="0 0 25 16"><g><g><g><path fill="#c3c3c3" d="M7.217 12.54H3.815V8.503H7.27c.68 0 1.257.156 1.678.473.422.37.629.894.629 1.626 0 .37-.104.687-.207.947a1.976 1.976 0 0 1-.526.576 1.765 1.765 0 0 1-.732.318 4.71 4.71 0 0 1-.894.103zm-.155-6.182s-3.247 0-3.247.007V2.957h3.04c.31 0 .576 0 .835.051.26.052.473.156.68.26.214.155.37.317.473.524.104.208.156.519.156.836 0 .577-.162 1.044-.525 1.309-.363.266-.836.421-1.412.421zM.614.488v14.469l7.024-.013c.63 0 1.258-.104 1.886-.26a5.344 5.344 0 0 0 1.678-.732 3.419 3.419 0 0 0 1.153-1.308c.266-.525.422-1.154.422-1.886 0-.894-.266-1.678-.68-2.307-.415-.629-1.096-1.101-1.99-1.36.635-.311 1.153-.733 1.471-1.206.37-.473.525-1.101.525-1.833 0-.629-.11-1.206-.318-1.679a2.427 2.427 0 0 0-.946-1.101A4.168 4.168 0 0 0 9.37.695C8.792.54 8.163.488 7.483.488z"/></g><g><path fill="#c3c3c3" d="M16.03 2.898h5.87V1.486h-5.87zm4.613 4.089c.363.37.628.894.732 1.672h-4.717c0-.208.052-.421.104-.68.051-.26.162-.526.369-.733.207-.207.414-.421.732-.577.318-.155.68-.259 1.153-.259.68 0 1.257.207 1.627.577zm-3.305 5.507c-.421-.42-.732-1.205-.732-2.06h7.6c.052-.836 0-1.575-.103-2.307-.214-.732-.525-1.412-.946-1.989-.421-.628-.946-1.043-1.626-1.413-.681-.369-1.465-.524-2.36-.524a5.93 5.93 0 0 0-2.202.42c-.629.26-1.205.681-1.679 1.154a5.73 5.73 0 0 0-1.101 1.782c-.265.68-.37 1.42-.37 2.203 0 .842.111 1.575.37 2.255a4.21 4.21 0 0 0 1.05 1.73c.473.525.998.894 1.678 1.153.68.266 1.419.422 2.255.422 1.205 0 2.203-.311 3.039-.836.836-.577 1.464-1.471 1.886-2.728H21.53c-.104.317-.364.628-.785.946a2.85 2.85 0 0 1-1.523.421c-.835 0-1.464-.207-1.885-.629z"/></g></g></g></svg>