<?xml version="1.0" encoding="UTF-8"?>
<svg id="SVGDoc" width="24" height="22" xmlns="http://www.w3.org/2000/svg" version="1.1" xmlns:xlink="http://www.w3.org/1999/xlink" xmlns:avocode="https://avocode.com/" viewBox="0 0 24 22"><defs><clipPath id="clip-de3a6242-38b7-4af6-86ee-e1c4bee5b06a"><path d="M0,22v0v-22v0h24v0v22v0z" ></path></clipPath></defs><desc>Generated with Avocode.</desc><g><g><title>Group 4951</title><g><title>Path 3621</title><path d="M20,0v3h4v19h-24v-19h3.999v-3h4.001v3h8v-3zM17,3h2v-2h-2zM5,3h2v-2h-2zM1,6h22.001v-2h-22.001zM1,20.999h22.001v-14h-22.001z" fill="#000000" fill-opacity="1"></path></g><g><title>Group 4950</title><g><title>Group 4949</title><g><title>Rectangle 5618</title></g><g clip-path="url(#clip-de3a6242-38b7-4af6-86ee-e1c4bee5b06a)"><title>Path 3622</title><path d="M4.843,18.21v0h-0.094c-0.553,0 -1,-0.448 -1,-1c0,-0.552 0.447,-1 1,-1h0.094c0.552,0 1,0.448 1,1c0,0.552 -0.448,1 -1,1" fill="#000000" fill-opacity="1"></path></g><g clip-path="url(#clip-de3a6242-38b7-4af6-86ee-e1c4bee5b06a)"><title>Path 3623</title><path d="M8.388,18.21v0h-0.094c-0.553,0 -1,-0.448 -1,-1c0,-0.552 0.447,-1 1,-1h0.094c0.552,0 1,0.448 1,1c0,0.552 -0.448,1 -1,1" fill="#000000" fill-opacity="1"></path></g><g clip-path="url(#clip-de3a6242-38b7-4af6-86ee-e1c4bee5b06a)"><title>Path 3624</title><path d="M11.893,18.21v0h-0.094c-0.553,0 -1,-0.448 -1,-1c0,-0.552 0.447,-1 1,-1h0.094c0.552,0 1,0.448 1,1c0,0.552 -0.448,1 -1,1" fill="#000000" fill-opacity="1"></path></g><g clip-path="url(#clip-de3a6242-38b7-4af6-86ee-e1c4bee5b06a)"><title>Path 3625</title><path d="M4.843,15v0h-0.094c-0.553,0 -1,-0.448 -1,-1c0,-0.552 0.447,-1 1,-1h0.094c0.552,0 1,0.448 1,1c0,0.552 -0.448,1 -1,1" fill="#000000" fill-opacity="1"></path></g><g clip-path="url(#clip-de3a6242-38b7-4af6-86ee-e1c4bee5b06a)"><title>Path 3626</title><path d="M8.388,15v0h-0.094c-0.553,0 -1,-0.448 -1,-1c0,-0.552 0.447,-1 1,-1h0.094c0.552,0 1,0.448 1,1c0,0.552 -0.448,1 -1,1" fill="#000000" fill-opacity="1"></path></g><g clip-path="url(#clip-de3a6242-38b7-4af6-86ee-e1c4bee5b06a)"><title>Path 3627</title><path d="M11.893,15v0h-0.094c-0.553,0 -1,-0.448 -1,-1c0,-0.552 0.447,-1 1,-1h0.094c0.552,0 1,0.448 1,1c0,0.552 -0.448,1 -1,1" fill="#000000" fill-opacity="1"></path></g><g clip-path="url(#clip-de3a6242-38b7-4af6-86ee-e1c4bee5b06a)"><title>Path 3628</title><path d="M15.478,15v0h-0.094c-0.553,0 -1,-0.448 -1,-1c0,-0.552 0.447,-1 1,-1h0.094c0.552,0 1,0.448 1,1c0,0.552 -0.448,1 -1,1" fill="#000000" fill-opacity="1"></path></g><g clip-path="url(#clip-de3a6242-38b7-4af6-86ee-e1c4bee5b06a)"><title>Path 3629</title><path d="M19.023,15v0h-0.094c-0.553,0 -1,-0.448 -1,-1c0,-0.552 0.447,-1 1,-1h0.094c0.552,0 1,0.448 1,1c0,0.552 -0.448,1 -1,1" fill="#000000" fill-opacity="1"></path></g><g clip-path="url(#clip-de3a6242-38b7-4af6-86ee-e1c4bee5b06a)"><title>Path 3630</title><path d="M4.843,11.79v0h-0.094c-0.553,0 -1,-0.448 -1,-1c0,-0.552 0.447,-1 1,-1h0.094c0.552,0 1,0.448 1,1c0,0.552 -0.448,1 -1,1" fill="#000000" fill-opacity="1"></path></g><g clip-path="url(#clip-de3a6242-38b7-4af6-86ee-e1c4bee5b06a)"><title>Path 3631</title><path d="M8.388,11.79v0h-0.094c-0.553,0 -1,-0.448 -1,-1c0,-0.552 0.447,-1 1,-1h0.094c0.552,0 1,0.448 1,1c0,0.552 -0.448,1 -1,1" fill="#000000" fill-opacity="1"></path></g><g clip-path="url(#clip-de3a6242-38b7-4af6-86ee-e1c4bee5b06a)"><title>Path 3632</title><path d="M11.893,11.79v0h-0.094c-0.553,0 -1,-0.448 -1,-1c0,-0.552 0.447,-1 1,-1h0.094c0.552,0 1,0.448 1,1c0,0.552 -0.448,1 -1,1" fill="#000000" fill-opacity="1"></path></g><g clip-path="url(#clip-de3a6242-38b7-4af6-86ee-e1c4bee5b06a)"><title>Path 3633</title><path d="M15.478,11.79v0h-0.094c-0.553,0 -1,-0.448 -1,-1c0,-0.552 0.447,-1 1,-1h0.094c0.552,0 1,0.448 1,1c0,0.552 -0.448,1 -1,1" fill="#000000" fill-opacity="1"></path></g><g clip-path="url(#clip-de3a6242-38b7-4af6-86ee-e1c4bee5b06a)"><title>Path 3634</title><path d="M19.023,11.79v0h-0.094c-0.553,0 -1,-0.448 -1,-1c0,-0.552 0.447,-1 1,-1h0.094c0.552,0 1,0.448 1,1c0,0.552 -0.448,1 -1,1" fill="#000000" fill-opacity="1"></path></g></g></g></g></g></svg>