<?xml version="1.0" encoding="UTF-8"?>
<svg id="SVGDoc" width="24" height="22" xmlns="http://www.w3.org/2000/svg" version="1.1" xmlns:xlink="http://www.w3.org/1999/xlink" xmlns:avocode="https://avocode.com/" viewBox="0 0 24 22"><defs><clipPath id="clip-716e3288-6e3f-4fa6-b4aa-3756ba68ec1b"><path d="M0,22v0v-22v0h24v0v22v0z" ></path></clipPath></defs><desc>Generated with Avocode.</desc><g><g><title>Group 4937</title><g><title>Group 4936</title><g><title>Rectangle 5589</title></g><g clip-path="url(#clip-716e3288-6e3f-4fa6-b4aa-3756ba68ec1b)"><title>Path 3619</title><path d="M1.653,17.467l1.256,-4.012c-1.121,-1.341 -1.909,-2.665 -1.909,-4.699c0,-4.277 4.262,-7.756 9.5,-7.756c5.018,0 9.128,3.194 9.467,7.222c-1.19,-0.566 -2.551,-0.889 -3.967,-0.889c-4.199,0 -8,2.797 -8,6.672c0,0.712 0.147,1.4 0.411,2.049c-0.953,-0.126 -1.546,-0.272 -2.369,-0.483zM19.415,18.946c-1,0.256 -1.989,0.482 -3.324,0.482c-3.465,0 -7.091,-2.065 -7.091,-5.423c0,-3.128 3.14,-5.672 7,-5.672c3.844,0 7,2.542 7,5.672c0,1.591 -0.646,2.527 -1.481,3.527l0.839,2.686zM14,14c0,-0.552 -0.448,-1 -1,-1c-0.552,0 -1,0.448 -1,1c0,0.552 0.448,1 1,1c0.552,0 1,-0.448 1,-1zM17,14c0,-0.552 -0.448,-1 -1,-1c-0.552,0 -1,0.448 -1,1c0,0.552 0.448,1 1,1c0.552,0 1,-0.448 1,-1zM24,14.005c0,-2.172 -1.199,-4.015 -3.002,-5.21c0,-0.013 0.002,-0.026 0.002,-0.039c0,-5.086 -4.988,-8.756 -10.5,-8.756c-5.546,0 -10.5,3.698 -10.5,8.756c0,1.794 0.646,3.556 1.791,4.922l-1.744,5.572v0l6.078,-2.625c0.982,0.253 1.932,0.407 2.85,0.489c1.317,1.953 3.876,3.314 7.116,3.314c1.019,0 2.105,-0.135 3.242,-0.428l4.631,2v0l-1.328,-4.245c0.871,-1.042 1.364,-2.384 1.364,-3.75M20,14c0,0.552 -0.448,1 -1,1c-0.552,0 -1,-0.448 -1,-1c0,-0.552 0.448,-1 1,-1c0.552,0 1,0.448 1,1" fill="#000000" fill-opacity="1"></path></g></g></g></g></svg>