<svg xmlns="http://www.w3.org/2000/svg" width="20" height="19" viewBox="0 0 20 19"><g><g><path fill="#c3c3c3" d="M14.437 15.967c-.082-.487-.508-2.823-1.554-5.697 2.509-.396 4.702.254 4.976.345a7.926 7.926 0 0 1-3.422 5.352zm-4.459 1.371a7.941 7.941 0 0 1-4.905-1.685c.142-.295 1.767-3.423 6.276-4.997.02-.01.03-.01.05-.02a33.132 33.132 0 0 1 1.707 6.062 7.862 7.862 0 0 1-3.128.64zM1.975 9.102c.345.01 4.225.06 8.216-1.138.234.447.447.904.65 1.361-.101.03-.213.061-.314.092-4.124 1.33-6.318 4.966-6.5 5.27a7.977 7.977 0 0 1-2.052-5.342zm4.6-6.998a50.393 50.393 0 0 1 2.966 4.621c-3.737.996-7.038.975-7.394.975a8.037 8.037 0 0 1 4.429-5.596zm3.403-.751a7.98 7.98 0 0 1 5.301 2.01c-.142.204-1.35 1.819-4.194 2.885-1.31-2.407-2.762-4.377-2.986-4.682a8.14 8.14 0 0 1 1.879-.213zm6.185 2.935zm1.808 4.976c-.264-.05-2.905-.589-5.565-.254-.061-.132-.112-.274-.173-.416a23.768 23.768 0 0 0-.528-1.158c2.945-1.198 4.286-2.925 4.458-3.148a7.962 7.962 0 0 1 1.808 4.976zM9.978-.029C4.808-.029.614 4.166.614 9.335c0 5.17 4.195 9.364 9.364 9.364 5.16 0 9.364-4.194 9.364-9.364 0-5.17-4.205-9.364-9.364-9.364z"/></g></g></svg>