<svg xmlns="http://www.w3.org/2000/svg" width="16" height="33" viewBox="0 0 16 33"><g><g><path fill="#fff" d="M3.809 16.59H1.017c-.38 0-.634-.126-.634-.507v-4.568-.508h2.665c.76 0 .76 0 .76-.76 0-1.65-.126-3.3.128-4.823.38-2.664 1.903-4.187 4.568-4.568C10.28.603 12.057.73 13.706.603h1.523c.253 0 .38.126.38.38v4.949c0 .38-.253.507-.507.507H11.93c-1.015 0-1.27.381-1.27 1.27v2.79c0 .382.128.508.508.508h3.934c.507 0 .634.127.634.635-.127 1.523-.254 3.045-.38 4.44 0 .382-.254.508-.635.508h-3.426c-.507 0-.634.127-.634.635V31.69c0 .888 0 .888-.888.888h-5.33c-.507 0-.761-.126-.761-.76V17.351c.127-.254.127-.508.127-.761z"/></g></g></svg>