<svg xmlns="http://www.w3.org/2000/svg" width="84" height="78" viewBox="0 0 84 78"><g><g><g transform="rotate(131 27 53.5)"><path fill="#01fa86" d="M46.694 48.266c6.277 9.98-10.493 27.894-25.022 22.73C7.142 65.832.822 53.39 2.57 44.46c1.748-8.932 8.289-10.497 11.653-9.967 3.365.529 5.942 6.47 9.894 7.281 3.953.812 17.035-2.318 22.577 6.493z"/></g><g><g><path fill="none" stroke="#1a1a1a" stroke-linecap="round" stroke-linejoin="round" stroke-miterlimit="20" stroke-width="2" d="M11.247 5.831h26.07"/></g><g><path fill="none" stroke="#1a1a1a" stroke-linecap="round" stroke-linejoin="round" stroke-miterlimit="20" stroke-width="2" d="M47.456 5.831h26.07"/></g><g><path fill="none" stroke="#1a1a1a" stroke-linecap="round" stroke-linejoin="round" stroke-miterlimit="20" stroke-width="2" d="M2.557 5.831a4.345 4.345 0 1 1 8.69 0 4.345 4.345 0 0 1-8.69 0z"/></g><g><path fill="none" stroke="#1a1a1a" stroke-linecap="round" stroke-linejoin="round" stroke-miterlimit="20" stroke-width="2" d="M73.526 5.831a4.345 4.345 0 1 1 8.69 0 4.345 4.345 0 0 1-8.69 0z"/></g><g><g><path fill="none" stroke="#1a1a1a" stroke-linecap="round" stroke-linejoin="round" stroke-miterlimit="20" stroke-width="2" d="M5.722 37.695v0H1.108v8.69h8.69v0-8.69 0H5.723v0"/></g><g><path fill="none" stroke="#1a1a1a" stroke-linecap="round" stroke-linejoin="round" stroke-miterlimit="20" stroke-width="2" d="M77.603 37.695v0h-4.077v8.69h8.69v0-8.69 0h-4.613v0"/></g></g><g><g><path fill="none" stroke="#1a1a1a" stroke-linecap="round" stroke-linejoin="round" stroke-miterlimit="20" stroke-width="2" d="M37.317 6.121C20.8 8.101 7.7 21.176 5.722 37.695"/></g><g><path fill="none" stroke="#1a1a1a" stroke-linecap="round" stroke-linejoin="round" stroke-miterlimit="20" stroke-width="2" d="M77.603 37.695C75.626 21.175 62.525 8.102 46.008 6.121"/></g><g><path fill="none" stroke="#1a1a1a" stroke-linecap="round" stroke-linejoin="round" stroke-miterlimit="20" stroke-width="2" d="M37.317 6.12v4.056h8.69v0-4.055 0"/></g><g><path fill="none" stroke="#1a1a1a" stroke-linecap="round" stroke-linejoin="round" stroke-miterlimit="20" stroke-width="2" d="M37.317 6.12v0-4.634 0h8.69v4.635"/></g></g><g><path fill="none" stroke="#1a1a1a" stroke-linecap="round" stroke-linejoin="round" stroke-miterlimit="20" stroke-width="2" d="M37.317 20.315h8.69"/></g><g><path fill="none" stroke="#1a1a1a" stroke-linecap="round" stroke-linejoin="round" stroke-miterlimit="20" stroke-width="2" d="M41.663 20.315v18.829"/></g><g><path fill="none" stroke="#1a1a1a" stroke-linecap="round" stroke-linejoin="round" stroke-miterlimit="20" stroke-width="2" d="M41.662 39.144a4.345 4.345 0 1 1-4.345 4.345"/></g><g><path fill="none" stroke="#1a1a1a" stroke-linecap="round" stroke-linejoin="round" stroke-miterlimit="20" stroke-width="2" d="M50.353 57.972v0l5.793-14.483v0S46.008 29.005 46.008 20.315"/></g><g><path fill="none" stroke="#1a1a1a" stroke-linecap="round" stroke-linejoin="round" stroke-miterlimit="20" stroke-width="2" d="M32.972 57.972v0L27.18 43.49v0s10.138-14.484 10.138-23.174"/></g><g><path fill="none" stroke="#1a1a1a" stroke-linecap="round" stroke-linejoin="round" stroke-miterlimit="20" stroke-width="2" d="M41.663 66.662v0h14.483v0-7.241 0H27.18v7.241h4.345v10.139"/></g><g><path fill="none" stroke="#1a1a1a" stroke-linecap="round" stroke-linejoin="round" stroke-miterlimit="20" stroke-width="2" d="M53.25 66.662v10.139"/></g></g></g></g></svg>