<svg xmlns="http://www.w3.org/2000/svg" width="19" height="20" viewBox="0 0 19 20"><defs><clipPath id="qdr0a"><path d="M.614 19.062V.745h18.317v18.317z"/></clipPath></defs><g><g><g><g><path fill="#c3c3c3" d="M.614 19.062V.745h18.317v18.317z"/></g><g clip-path="url(#qdr0a)"><path fill="#c3c3c3" d="M5.843 2.386a3.456 3.456 0 0 0-3.452 3.452v7.995a3.456 3.456 0 0 0 3.452 3.452h7.996a3.456 3.456 0 0 0 3.452-3.452V5.838a3.456 3.456 0 0 0-3.452-3.452zm7.996 16.676H5.843a5.235 5.235 0 0 1-5.229-5.229V5.838a5.235 5.235 0 0 1 5.23-5.23h7.995a5.235 5.235 0 0 1 5.229 5.23v7.995a5.235 5.235 0 0 1-5.229 5.23"/></g><g clip-path="url(#qdr0a)"><path fill="#c3c3c3" d="M9.841 6.802a3.037 3.037 0 0 0-3.033 3.034 3.037 3.037 0 0 0 3.033 3.033 3.037 3.037 0 0 0 3.034-3.034A3.037 3.037 0 0 0 9.84 6.803m0 7.844a4.816 4.816 0 0 1-4.81-4.81 4.816 4.816 0 0 1 4.81-4.81 4.816 4.816 0 0 1 4.81 4.81 4.816 4.816 0 0 1-4.81 4.81"/></g><g clip-path="url(#qdr0a)"><path fill="#c3c3c3" d="M15.857 4.962a1.104 1.104 0 1 0-2.208 0 1.104 1.104 0 0 0 2.208 0"/></g></g></g></g></svg>