<?xml version="1.0" encoding="UTF-8"?>
<svg id="SVGDoc" width="32" height="31" xmlns="http://www.w3.org/2000/svg" version="1.1" xmlns:xlink="http://www.w3.org/1999/xlink" xmlns:avocode="https://avocode.com/" viewBox="0 0 32 31"><defs></defs><desc>Generated with Avocode.</desc><g><g><title>Rectangle 5539</title><path d="M15,31c-8.28427,0 -15,-6.71573 -15,-15v-1c0,-8.28427 6.71573,-15 15,-15h2c8.28427,0 15,6.71573 15,15v1c0,8.28427 -6.71573,15 -15,15z" fill="#a3aafb" fill-opacity="1"></path></g><g><title>Rectangle 5635</title><path d="M10,18c-1.10457,0 -2,-0.89543 -2,-2v0c0,-1.10457 0.89543,-2 2,-2v0c1.10457,0 2,0.89543 2,2v0c0,1.10457 -0.89543,2 -2,2z" fill="#4e57b9" fill-opacity="1"></path></g><g><title>Rectangle 5636</title><path d="M16,18c-1.10457,0 -2,-0.89543 -2,-2v0c0,-1.10457 0.89543,-2 2,-2v0c1.10457,0 2,0.89543 2,2v0c0,1.10457 -0.89543,2 -2,2z" fill="#4e57b9" fill-opacity="1"></path></g><g><title>Rectangle 5637</title><path d="M22,18c-1.10457,0 -2,-0.89543 -2,-2v0c0,-1.10457 0.89543,-2 2,-2v0c1.10457,0 2,0.89543 2,2v0c0,1.10457 -0.89543,2 -2,2z" fill="#4e57b9" fill-opacity="1"></path></g></g></svg>