<svg xmlns="http://www.w3.org/2000/svg" width="20" height="17" viewBox="0 0 20 17"><g><g><path fill="#c3c3c3" d="M19.695 3.958c-.085 1.858-1.382 4.402-3.893 7.632-2.596 3.373-4.792 5.06-6.588 5.06-1.113 0-2.054-1.027-2.824-3.082l-1.54-5.65c-.572-2.053-1.184-3.08-1.84-3.08-.143 0-.642.3-1.498.898L.614 4.58c.942-.827 1.872-1.655 2.786-2.484C4.656 1.01 5.6.44 6.23.381c1.484-.142 2.399.873 2.742 3.046.37 2.345.628 3.804.772 4.375.428 1.946.9 2.918 1.414 2.918.4 0 1-.631 1.8-1.894.8-1.262 1.228-2.222 1.286-2.882.114-1.09-.315-1.635-1.286-1.635a3.58 3.58 0 0 0-1.413.313c.939-3.073 2.731-4.565 5.377-4.48 1.961.058 2.887 1.33 2.773 3.816z"/></g></g></svg>