<svg xmlns="http://www.w3.org/2000/svg" width="26" height="18" viewBox="0 0 26 18"><g><g><path fill="#c3c3c3" d="M10.823 12.785v-7.53l6.405 3.649zm13.7-11.595c-.452-.41-.88-.667-2.598-.826-2.148-.2-5.057-.228-7.257-.231-.907-.002-1.815-.002-2.722 0-2.2.003-5.11.031-7.258.23-1.717.16-2.146.417-2.598.827C.9 2.269.65 5.222.62 8.128a69.33 69.33 0 0 0 0 1.625c.036 2.882.291 5.795 1.471 6.865.452.41.881.666 2.598.826 2.148.2 5.058.227 7.258.231h2.722c2.2-.004 5.109-.032 7.257-.231 1.717-.16 2.146-.417 2.598-.826 1.17-1.061 1.432-3.933 1.47-6.79.009-.616.009-1.233 0-1.848-.038-2.857-.3-5.73-1.47-6.79z"/></g></g></svg>